<?xml version="1.0" encoding="UTF-8"?>
<svg id="Layer_2" data-name="Layer 2" xmlns="http://www.w3.org/2000/svg" xmlns:xlink="http://www.w3.org/1999/xlink" viewBox="0 0 1357.34 527.15">
  <defs>
    <style>
      .cls-1 {
        fill: #231f20;
      }

      .cls-2 {
        fill: none;
      }

      .cls-3 {
        fill: #f7e300;
        filter: url(#drop-shadow-1);
      }
    </style>
    <filter id="drop-shadow-1" x="111.18" y="18.58" width="1180.41" height="508.57" filterUnits="userSpaceOnUse">
      <feOffset dx="42.52" dy="42.52"/>
      <feGaussianBlur result="blur" stdDeviation="0"/>
      <feFlood flood-color="#db5da2" flood-opacity="1"/>
      <feComposite in2="blur" operator="in"/>
      <feComposite in="SourceGraphic"/>
    </filter>
  </defs>
  <g id="Original">
    <polygon id="FAJA_original" data-name="FAJA original" class="cls-3" points="1249.08 18.58 177 112.38 111.18 484.63 1183.26 390.84 1249.08 18.58"/>
    <g id="LA_DOBLE_BRAGADO_1" data-name="LA DOBLE BRAGADO 1">
      <polygon class="cls-2" points="1298.21 396.34 0 509.92 59.13 113.58 1357.34 0 1298.21 396.34"/>
      <path class="cls-1" d="M251.11,136.88l38.24-3.35-22.11,119.48,46.04-4.03-6.66,35.99-84.28,7.37,28.78-155.47Z"/>
      <path class="cls-1" d="M304.52,285.16l85.78-160.09,39.57-3.46,27.42,150.18-39.19,3.43-2.91-18.66-60.5,5.29-10.03,19.79-40.14,3.51ZM410.77,227.85l-9.02-59.46-31.69,63.03,40.71-3.56Z"/>
      <path class="cls-1" d="M544.09,111.25l36.72-3.21c59.93-5.24,78.94,27.58,71.12,69.79-7.81,42.21-39.97,80.44-99.9,85.68l-36.72,3.21,28.78-155.47ZM563.87,224.83c29.49-2.58,45.59-21.79,49.63-43.65,4.01-21.67-5.49-38.08-34.98-35.5l-3.23.28-14.65,79.15,3.23-.28Z"/>
      <path class="cls-1" d="M728.06,250.88c-47.37,4.14-74.49-30.38-66.5-73.53,7.95-42.97,48.95-83.45,96.32-87.59,47.18-4.13,74.29,30.39,66.34,73.36-7.99,43.16-48.98,83.64-96.17,87.77ZM735.11,212.82c24.73-2.16,46.4-23.16,50.69-46.33s-10.22-40.82-34.96-38.66c-24.92,2.18-46.55,22.98-50.84,46.16s10.19,41.01,35.11,38.83Z"/>
      <path class="cls-1" d="M854.73,84.25l43.57-3.81c37.29-3.26,53.2,8.88,47.9,37.52-2.48,13.38-10.22,23.88-19.79,30.1,12.65,4.46,18.23,16.76,15.34,32.4-5.69,30.72-29,51.48-71.61,55.21l-44.14,3.86,28.74-155.28ZM875.37,201.29c16.36-1.43,25.43-5.93,27.7-18.18,2.23-12.06-5.3-15.85-20.33-14.54l-8.37.73-6.04,32.6,7.04-.62ZM887.76,141.43c11.98-1.05,19.91-5.45,21.83-15.81,2.09-11.31-4.29-14.27-16.46-13.21l-8.37.73-5.37,29.02,8.37-.73Z"/>
      <path class="cls-1" d="M977.48,73.33l38.24-3.35-22.11,119.48,46.04-4.03-6.66,35.99-84.28,7.37,28.78-155.47Z"/>
      <path class="cls-1" d="M1074.02,65.44l89.42-7.82-6.59,35.62-51.18,4.48-4.95,26.76,46.8-4.09-5.23,28.27-46.8,4.09-5.23,28.27,51.18-4.48-6.66,35.99-89.42,7.82,28.67-154.91Z"/>
      <path class="cls-1" d="M220.04,307.39l40.85-3.57c34.96-3.06,49.87,8.32,44.9,35.18-2.32,12.54-9.58,22.39-18.56,28.22,11.86,4.18,17.1,15.71,14.38,30.38-5.33,28.8-27.18,48.26-67.14,51.76l-41.38,3.62,26.95-145.58ZM239.39,417.1c15.34-1.34,23.84-5.56,25.97-17.05,2.09-11.31-4.97-14.86-19.06-13.63l-7.85.69-5.66,30.56,6.6-.58ZM251,360.99c11.24-.98,18.67-5.11,20.47-14.83,1.96-10.6-4.02-13.38-15.43-12.38l-7.85.69-5.04,27.21,7.85-.69Z"/>
      <path class="cls-1" d="M335.08,297.32l36.74-3.21c48.52-4.24,61.33,22.27,55.74,52.48-3.17,17.14-12.1,34.08-26.97,46.16l14.38,40.8-41.56,3.64-6.85-28.43c-3.49.83-7.27,1.33-11.19,1.67l-6.06.53-5.36,28.97-35.85,3.14,26.98-145.75ZM362.86,375.71c16.59-1.45,27.05-12.45,29.56-26.05,2.55-13.78-4.36-22.91-20.77-21.47l-7.13.62-8.8,47.53,7.13-.62Z"/>
      <path class="cls-1" d="M408.37,434.13l80.42-150.08,37.1-3.25,25.71,140.8-36.74,3.21-2.73-17.49-56.72,4.96-9.4,18.55-37.63,3.29ZM507.99,380.39l-8.46-55.75-29.71,59.09,38.17-3.34Z"/>
      <path class="cls-1" d="M558.86,349.18c7.46-40.28,45.89-78.23,90.3-82.12,36.03-3.15,59.54,17.73,62.83,47.34l-41.59,3.81c-3.36-10.31-13.93-16.68-27.85-15.47-24.79,2.17-44.24,21.95-48.3,43.86-4.06,21.91,8.24,38.91,33.03,36.74,15.16-1.33,31.1-11.58,38.19-25.24l-43.52,3.81,4.9-26.5,85.08-7.44c-2.76,43.35-44.19,86.08-90.74,90.15-44.41,3.89-69.83-28.48-62.34-68.94Z"/>
      <path class="cls-1" d="M691.25,409.38l80.42-150.08,37.1-3.25,25.71,140.8-36.74,3.21-2.73-17.49-56.72,4.96-9.4,18.55-37.63,3.29ZM790.86,355.65l-8.46-55.75-29.71,59.09,38.17-3.34Z"/>
      <path class="cls-1" d="M869.3,250.41l34.42-3.01c56.19-4.92,74,25.85,66.68,65.43-7.32,39.58-37.47,75.41-93.66,80.33l-34.42,3.01,26.98-145.75ZM887.84,356.89c27.65-2.42,42.74-20.42,46.53-40.92,3.76-20.32-5.15-35.7-32.79-33.28l-3.03.27-13.73,74.2,3.03-.27Z"/>
      <path class="cls-1" d="M1041.77,381.32c-44.41,3.89-69.83-28.48-62.34-68.94,7.46-40.28,45.89-78.23,90.3-82.12,44.24-3.87,69.66,28.49,62.2,68.78-7.49,40.46-45.92,78.41-90.16,82.28ZM1048.38,345.63c23.19-2.03,43.5-21.71,47.52-43.44,4.02-21.73-9.59-38.27-32.78-36.24-23.37,2.04-43.64,21.55-47.67,43.28-4.02,21.73,9.55,38.45,32.92,36.4Z"/>
    </g>
  </g>
</svg>